PathFileType	4	(X/Y/Z)	C:\Users\Basilio\Documents\Thesis Gigler\squatting_fais\c3dfiles\044\SLS_front_pre2\markers_experimental.trc
DataRate	CameraRate	NumFrames	NumMarkers	Units	OrigDataRate	OrigDataStartFrame	OrigNumFrames
200.000000	200.000000	4	60	mm	200.000000	810	1620
Frame#	Time	FHD			LBHD			RBHD			C7			T10			CLAV			LSHO			LUUPA			LMUPA			LDUPA			LLEP			LMEP			LRAD			LRFIN			RSHO			RUPA1			RMUPA			RDUPA			RLEP			RMEP			RUL			LASI			RASI			USACR			LSACR			RSACR			LTHI1			LTHI2			LTHI3			LTHI4			LLFC			LMFC			LTIB1			LTIB2			LTIB3			LTIB4			LLMAL			LMMAL			LHEE			LMT1			LMT2			LMT5			RTHI			RTHI2			RTHI3			RTHI4			RLFC			RMFC			RTIB1			RTIB2			RTIB3			RTIB4			RLMAL			RMMAL			RHEE			RMT1			RMT2			RMT5			RUFIN			LUL			
		X1	Y1	Z1	X2	Y2	Z2	X3	Y3	Z3	X4	Y4	Z4	X5	Y5	Z5	X6	Y6	Z6	X7	Y7	Z7	X8	Y8	Z8	X9	Y9	Z9	X10	Y10	Z10	X11	Y11	Z11	X12	Y12	Z12	X13	Y13	Z13	X14	Y14	Z14	X15	Y15	Z15	X16	Y16	Z16	X17	Y17	Z17	X18	Y18	Z18	X19	Y19	Z19	X20	Y20	Z20	X21	Y21	Z21	X22	Y22	Z22	X23	Y23	Z23	X24	Y24	Z24	X25	Y25	Z25	X26	Y26	Z26	X27	Y27	Z27	X28	Y28	Z28	X29	Y29	Z29	X30	Y30	Z30	X31	Y31	Z31	X32	Y32	Z32	X33	Y33	Z33	X34	Y34	Z34	X35	Y35	Z35	X36	Y36	Z36	X37	Y37	Z37	X38	Y38	Z38	X39	Y39	Z39	X40	Y40	Z40	X41	Y41	Z41	X42	Y42	Z42	X43	Y43	Z43	X44	Y44	Z44	X45	Y45	Z45	X46	Y46	Z46	X47	Y47	Z47	X48	Y48	Z48	X49	Y49	Z49	X50	Y50	Z50	X51	Y51	Z51	X52	Y52	Z52	X53	Y53	Z53	X54	Y54	Z54	X55	Y55	Z55	X56	Y56	Z56	X57	Y57	Z57	X58	Y58	Z58	X59	Y59	Z59	X60	Y60	Z60	

811	4.05	-171.5025329589844	1557.088134765625	-1065.790161132813	-306.0737915039063	1531.294067382813	-1144.41796875	-352.4935913085938	1522.064575195313	-984.7918090820315	-388.539764404297	1365.459106445313	-1067.491455078125	-496.6676635742189	1092.994384765625	-1024.117309570313	-264.5468444824219	1293.360717773438	-1059.576049804688	-290.8156738281251	1355.114135742188	-1206.823974609375	-131.0103759765625	1311.090698242188	-1296.885009765625	-104.3834991455078	1320.376831054688	-1254.519287109375	-63.02952194213869	1298.5029296875	-1294.605346679688	-4.785711288452149	1292.341796875	-1282.251220703125	-23.19026756286621	1217.539672851563	-1262.923217773438	nan	nan	nan	256.5895996093751	1303.613037109375	-1054.64306640625	-304.0400085449219	1367.718505859375	-910.844177246094	-156.9957733154297	1326.966064453125	-807.6477050781252	-125.7510681152344	1335.912231445313	-846.095397949219	-88.28050231933595	1315.671020507813	-805.037292480469	-27.57942199707032	1309.834106445313	-814.310241699219	-40.29504394531251	1231.628173828125	-827.3919677734377	231.7560272216797	1293.822021484375	-922.137634277344	-377.1674194335938	866.4523925781252	-1100.092529296875	-374.6719665527344	875.8789672851565	-886.017517089844	-539.0928344726564	929.0215454101565	-991.3953247070315	-549.2805175781251	895.547790527344	-1014.896911621094	-549.5961914062501	902.9146728515627	-960.6942138671877	-348.6247558593751	658.9391479492189	-1175.015502929688	-268.1647644042969	629.5263061523439	-1181.18408203125	-236.4157867431641	663.7960205078126	-1175.032104492188	-247.9966430664063	572.6657104492189	-1167.4912109375	-139.8655853271485	471.7731323242189	-1146.950927734375	-130.8239440917969	481.8768310546876	-1027.93701171875	-170.3043212890625	316.5669250488282	-1044.249145507813	-215.5148925781251	274.5679626464844	-1107.512939453125	-186.0738220214844	264.9100646972657	-1068.547119140625	-236.2029418945313	211.4078369140626	-1027.904052734375	-335.7836914062501	123.1670761108399	-1062.821655273438	-312.3065490722657	139.5591278076172	-978.7917480468752	-407.417205810547	111.3205261230469	-1008.270446777344	-201.5013580322266	62.08737564086915	-985.391540527344	-200.0550384521485	61.61153793334962	-1032.353637695313	-238.2650146484376	48.3628387451172	-1079.021850585938	-265.4887390136719	709.4672851562501	-794.2767333984377	-199.8847198486329	729.3348999023439	-795.1956176757815	-190.4071502685547	760.0701293945314	-807.619323730469	-135.7578582763672	675.9544677734376	-809.1920166015627	-47.61075973510743	621.9118041992189	-817.4350585937502	-48.09627151489259	609.0075073242189	-935.2026367187502	60.54194641113283	541.3719482421876	-841.0767211914065	36.69452667236329	445.4615173339845	-790.773376464844	74.90526580810548	460.116180419922	-810.4642333984377	109.5405807495117	420.952606201172	-834.5789184570315	133.49853515625	254.095932006836	-810.9334716796877	144.9082946777344	269.6117553710938	-896.051452636719	116.0664978027344	181.3395233154297	-851.522399902344	284.2976684570313	317.9267272949219	-885.699401855469	285.7850341796876	318.9318847656251	-846.299743652344	272.3217163085938	282.6428527832032	-792.177429199219	250.1752471923829	1277.12451171875	-1035.420654296875	244.7660369873047	1286.215698242188	-1154.850830078125	
812	4.055	-171.5040130615235	1556.42724609375	-1065.659057617188	-306.8589782714844	1530.513305664063	-1144.338134765625	-352.5779724121094	1521.475708007813	-984.7319946289065	-388.6668090820314	1364.992919921875	-1067.4052734375	-496.661346435547	1092.498168945313	-1024.137939453125	-264.4512634277344	1292.853881835938	-1059.462768554688	-290.7491760253907	1354.890502929688	-1206.826416015625	-130.9913482666016	1310.775146484375	-1296.80615234375	-104.3858718872071	1319.997680664063	-1254.461547851563	-62.94897079467775	1298.018676757813	-1294.558715820313	-4.576236248016358	1292.073852539063	-1282.203735351563	-23.20056915283203	1217.257080078125	-1262.603759765625	nan	nan	nan	256.6720581054688	1303.480590820313	-1054.57763671875	-303.9306030273438	1367.239624023438	-910.8901367187502	-156.7124633789063	1326.183227539063	-807.5294189453127	-125.8830795288086	1336.333618164063	-846.290466308594	-88.28388977050783	1315.128540039063	-805.2114257812502	-27.54306602478028	1309.8876953125	-814.3308105468752	-40.27777481079102	1231.006958007813	-827.3030395507815	231.9547271728516	1293.56884765625	-922.139831542969	-377.1879272460938	866.177185058594	-1100.1806640625	-374.7839050292969	875.5381469726565	-885.9976196289065	-539.2683715820314	928.4948730468752	-991.3067626953127	-549.2409057617189	894.983337402344	-1014.896362304688	-549.8378906250001	902.5491943359377	-960.7016601562502	-348.5650634765626	658.5670776367189	-1175.130737304688	-268.0376586914063	629.2904663085939	-1181.383544921875	-235.8739624023438	663.1500244140626	-1175.107299804688	-248.4480590820313	572.9675292968751	-1167.621826171875	-139.7087707519532	471.5185546875001	-1147.134399414063	-130.6890716552735	481.6853027343751	-1028.073364257813	-170.0341033935547	316.3547668457032	-1044.411010742188	-214.7259979248047	274.0995178222657	-1107.611694335938	-186.2657775878907	264.9223022460938	-1068.298583984375	-236.1835479736329	211.473373413086	-1027.895629882813	-335.7327270507813	123.1794357299805	-1062.817626953125	-312.2835083007813	139.5902252197266	-978.7559814453127	-407.4060058593751	111.2940444946289	-1008.315551757813	-201.4926910400391	62.06727981567384	-985.384704589844	-199.9624328613282	61.57055282592775	-1032.37451171875	-237.8938903808594	48.95122528076173	-1079.006103515625	-265.5343627929688	709.1679687500001	-794.102478027344	-199.9564514160157	729.1270751953126	-794.9456176757815	-190.5283660888672	759.8900146484376	-807.4599609375002	-135.6525573730469	675.8207397460939	-809.0797119140627	-47.42004776000977	621.7900390625001	-817.2346191406252	-47.6289405822754	609.0686645507814	-935.0859985351565	60.75836181640626	541.2479248046876	-840.8018188476565	36.88620376586915	445.2696838378907	-790.629821777344	75.05162811279298	460.0004272460939	-810.3186035156252	109.7821578979492	420.9225463867189	-834.4467773437502	133.8873596191407	253.9714965820313	-810.8376464843752	145.2704162597657	269.6623229980469	-895.9804687500002	116.3804168701172	181.3093872070313	-851.6065673828127	284.6496887207032	317.9451904296876	-885.3535156250002	285.9299011230469	318.9851074218751	-845.8238525390627	272.5910949707032	282.4413452148438	-791.9331665039065	250.5433197021485	1276.968872070313	-1035.377319335938	244.8527069091797	1286.12646484375	-1154.795166015625	
813	4.06	-171.2605743408203	1556.156372070313	-1065.7197265625	-306.9551391601563	1529.99462890625	-1144.188598632813	-352.5245056152344	1520.809692382813	-984.7070922851565	-388.6472473144532	1364.414428710938	-1067.390625	-496.5965270996095	1092.179565429688	-1024.144653320313	-264.4990844726563	1292.355712890625	-1059.3251953125	-290.7233276367188	1354.526000976563	-1206.734619140625	-130.991195678711	1310.40576171875	-1296.632934570313	-104.2650833129883	1319.733276367188	-1254.455810546875	-62.96379852294923	1297.671142578125	-1294.292724609375	-4.614350318908692	1291.83837890625	-1282.097900390625	-23.18516921997071	1217.019653320313	-1262.423583984375	nan	nan	nan	256.7266540527344	1303.368774414063	-1054.465698242188	-303.8110656738282	1366.818725585938	-910.9350585937502	-156.8049926757813	1325.930297851563	-807.3627929687502	-125.8343658447266	1335.5458984375	-846.0865478515627	-88.27903747558595	1315.017211914063	-805.2866210937502	-27.51372718811036	1309.585205078125	-814.4216308593752	-40.2472038269043	1230.662963867188	-827.4393310546877	232.0830078125001	1293.276489257813	-922.0026855468752	-377.1555175781251	865.8679809570315	-1100.29248046875	-374.6322326660157	875.1834716796877	-885.9705810546877	-539.1878662109376	927.8621215820315	-991.3416137695315	-548.9825439453126	894.4521484375002	-1014.966613769531	-549.7501831054689	901.6922607421877	-960.6571044921877	-348.5472106933594	658.2257080078126	-1175.263671875	-267.9803466796876	628.9675903320314	-1181.524780273438	-235.7971496582032	662.8712768554689	-1175.24853515625	-248.2215423583985	572.8822631835939	-1167.697387695313	-139.400390625	471.2623291015626	-1147.336303710938	-130.3634490966797	481.5432128906251	-1028.334350585938	-169.995834350586	316.2316284179688	-1044.413818359375	-215.3468475341797	274.2155456542969	-1107.577880859375	-185.9890441894532	264.8071899414063	-1068.599853515625	-236.093734741211	211.3576354980469	-1027.924438476563	-335.7411499023438	123.1825714111328	-1062.775024414063	-312.2384033203126	139.5837707519532	-978.768005371094	-407.3462524414064	111.3412857055664	-1008.35302734375	-201.6595153808594	62.30368041992189	-985.3225708007815	-199.9805908203126	61.52762985229494	-1032.411376953125	-237.8233032226563	48.90974807739259	-1079.029418945313	-265.3818969726563	708.7967529296876	-794.0571899414065	-199.9061889648438	728.5009765625001	-794.591735839844	-190.4500274658203	759.5326538085939	-807.3533325195315	-135.6329193115235	675.5607299804689	-808.9038085937502	-47.40402603149415	621.6687011718751	-817.018493652344	-47.28863143920899	608.9979858398439	-935.0009765625002	60.87252426147462	541.2338256835939	-840.6062011718752	37.10999298095704	445.0509033203126	-790.3875122070315	75.29968261718751	459.8096008300782	-810.1563720703127	109.9700698852539	420.8899841308595	-834.175476074219	134.2799377441407	253.7689208984376	-810.755065917969	145.5300598144532	269.6487731933594	-895.8634033203127	116.9629898071289	181.252182006836	-851.832458496094	284.6373596191407	318.4911804199219	-884.8462524414065	286.0784301757813	318.9833068847657	-845.3953247070315	273.1020202636719	281.9062194824219	-791.6848144531252	250.5791778564454	1276.787963867188	-1035.29052734375	244.9826202392579	1285.888305664063	-1154.635498046875	
814	4.065	-171.091049194336	1555.6591796875	-1065.570678710938	-307.1931457519532	1529.255126953125	-1144.159790039063	-352.4779663085938	1520.517211914063	-984.649353027344	-388.5367431640626	1363.829223632813	-1067.401245117188	-496.6077880859376	1091.6572265625	-1024.165771484375	-264.7005920410157	1291.85107421875	-1059.19775390625	-290.7104797363282	1353.99462890625	-1206.6796875	-130.969970703125	1309.932250976563	-1296.562866210938	-104.2937316894532	1319.318603515625	-1254.42578125	-62.97100830078126	1297.280883789063	-1294.232177734375	-4.479149341583253	1291.557983398438	-1281.983764648438	-23.13011741638184	1216.632446289063	-1262.314819335938	nan	nan	nan	256.7349548339844	1303.5126953125	-1054.46923828125	-303.8046875000001	1366.244262695313	-910.8731079101565	-156.8998718261719	1325.538452148438	-807.3342895507815	-125.8595809936524	1335.177734375	-845.9859008789065	-88.25386047363283	1314.665771484375	-805.309265136719	-27.49650955200196	1309.360961914063	-814.5017089843752	-40.17240524291993	1230.248657226563	-827.3984985351565	232.1739196777344	1293.048095703125	-921.8923950195315	-377.2687988281251	865.4421386718752	-1100.347045898438	-374.5587158203126	874.487487792969	-885.9893188476565	-539.1455078125001	927.2126464843752	-991.277770996094	-548.6550903320314	893.924743652344	-1015.02880859375	-549.8556518554689	901.2836914062502	-960.7467041015627	-348.5047912597657	657.8792114257814	-1175.355346679688	-267.8126525878907	628.7853393554689	-1181.631713867188	-235.6946411132813	662.5896606445314	-1175.40771484375	-248.0916748046876	572.5275878906251	-1167.836303710938	-139.1908721923828	471.0236206054689	-1147.468383789063	-130.0154876708985	481.1964111328126	-1028.06201171875	-169.9099884033203	316.1211547851563	-1044.289306640625	-215.2428741455079	274.0072631835938	-1107.613891601563	-185.8523864746094	264.7136535644532	-1068.738037109375	-236.0790405273438	211.3726043701172	-1027.882934570313	-335.7086486816407	123.2052536010742	-1062.749633789063	-312.2274169921876	139.5288391113282	-978.7828369140627	-407.3890075683595	111.3819808959961	-1008.302978515625	-201.663803100586	62.2692337036133	-985.3477783203127	-199.9273681640626	61.50629806518556	-1032.449462890625	-238.191635131836	48.4005470275879	-1078.9873046875	-265.2849731445313	708.1518554687501	-793.8157348632815	-199.9082794189454	728.2663574218751	-794.3913574218752	-190.4233551025391	759.2451782226564	-807.1235351562502	-135.5084686279297	675.2258300781251	-808.807556152344	-47.28176879882813	621.5977172851564	-816.8521728515627	-46.93079376220704	608.9176635742189	-934.8515625000002	61.25515747070314	540.9139404296876	-840.4334716796877	37.24646377563477	444.827850341797	-790.2093505859377	75.49017333984376	459.5650634765626	-809.9403076171877	110.0885772705078	420.7406616210939	-833.8945312500002	134.3897399902344	253.9326171875001	-810.5740356445315	145.9303588867188	269.6709289550782	-895.7683105468752	117.5130691528321	181.0308990478516	-851.9185180664065	284.8806457519532	318.5959167480469	-884.4348754882815	286.2973937988282	318.8892822265626	-844.877624511719	273.2482299804688	281.9154052734376	-791.4645996093752	250.6341094970704	1276.578002929688	-1035.155395507813	245.0480651855469	1285.75146484375	-1154.562133789063	
